<svg width="154" height="143" viewBox="0 0 154 143" fill="none" xmlns="http://www.w3.org/2000/svg">
<g clip-path="url(#clip0_34_323)">
<path d="M98.2513 44.3267C97.9472 43.3697 97.5963 42.4299 97.2162 41.513C95.291 37.231 91.9936 33.6807 87.8237 31.4005C83.6539 29.1203 78.8391 28.2344 74.1091 28.8772C69.3792 29.52 64.9921 31.6563 61.6129 34.9624C58.2337 38.2685 56.0466 42.564 55.3833 47.1978C51.2394 45.5219 46.6563 45.192 42.3069 46.2566C37.9575 47.3212 34.0711 49.7242 31.2182 53.1127C28.3654 56.5013 26.6964 60.6969 26.4564 65.0834C26.2164 69.4699 27.418 73.8163 29.8848 77.4843C30.7714 78.6637 31.7283 79.7908 32.7504 80.8597C33.7628 81.9213 34.8451 82.9168 35.9904 83.8396C37.1418 84.7796 38.3444 85.6577 39.5929 86.47L39.8386 86.6247C48.4414 92.1382 58.6789 94.6739 68.9221 93.8282C71.3375 93.6104 74.2382 92.9399 75.7705 90.9628C77.3671 88.8883 77.2325 86.0517 77.0337 83.5989C76.9635 82.7336 75.7822 77.8053 77.4197 77.7422C82.4375 77.5474 84.4376 73.215 83.6423 72.2351C82.8469 71.2551 82.034 70.4643 81.6363 68.4929C81.2386 66.5216 79.8292 66.7222 77.6185 64.7565C75.4079 62.7909 76.6126 58.0631 76.6126 58.0631L73.4019 60.2236L72.8171 57.8626C72.8171 57.8626 63.5826 71.0431 61.1731 71.0431C58.7636 71.0431 56.553 69.4671 54.9447 68.682C53.3364 67.8969 48.7221 68.682 47.1138 67.8912C45.5055 67.1004 42.5639 57.4385 41.8913 55.6964C41.3065 54.1204 54.7576 53.1348 57.1554 52.3497C59.5532 51.5646 60.5708 47.8224 64.5827 47.2322C67.77 46.7623 70.6064 47.8052 70.431 45.8568C70.2555 43.9084 71.2322 36.2121 73.0393 36.2121C73.6241 38.5732 76.0512 43.2952 84.888 52.1491C93.7247 61.003 97.6489 68.5101 97.6489 68.5101C100.597 60.7406 100.809 52.228 98.2513 44.3267Z" fill="white"/>
<path d="M65.1558 54.7164C65.1558 54.321 61.5416 52.5502 60.5415 52.3553C60.138 52.745 59.9567 56.4872 62.5475 56.4872C62.951 56.4872 61.9627 55.1118 62.144 54.7164C62.3253 54.321 65.1558 55.1118 65.1558 54.7164Z" fill="white"/>
<path d="M11.9422 62.3897C3.71364 60.8138 0.298239 62.1949 0.0993972 65.9313C-0.0994449 69.6677 -0.304135 79.9026 2.92412 80.6877C6.15238 81.4728 17.9776 78.5101 21.9837 71.6333C23.592 68.8825 20.1766 63.9656 11.9422 62.3897Z" fill="white"/>
<path d="M15.5564 17.9199C1.90652 17.3468 -4.1874 38.7222 8.12911 43.8912C17.9718 48.023 26.8027 48.4184 29.8263 46.2523C32.3469 44.4356 29.2415 18.5101 15.5564 17.9199Z" fill="white"/>
<path d="M53.5119 31.5187C57.3133 31.1634 59.7345 25.4213 59.7345 10.6648C59.7345 -4.09163 47.2835 0.21209 42.4645 1.98286C37.6455 3.75364 31.4229 6.51008 35.6395 15.1634C39.8561 23.8167 49.2953 31.8912 53.5119 31.5187Z" fill="white"/>
<path d="M77.0045 24.6418C80.1391 25.5415 85.4377 20.1146 87.6484 14.8023C89.859 9.48997 91.865 4.56733 81.4199 2.7679C70.9749 0.968478 69.3724 3.55874 70.3783 9.851C71.3843 16.1433 73.5891 23.6275 77.0045 24.6418Z" fill="white"/>
</g>
<path d="M0.837891 131V112.094H5.83301C6.87858 112.094 7.70573 112.326 8.31445 112.792C8.93034 113.257 9.37077 113.92 9.63574 114.779C9.90072 115.639 10.0332 116.663 10.0332 117.852C10.0332 118.997 9.9222 119.996 9.7002 120.849C9.47819 121.694 9.08073 122.349 8.50781 122.814C7.94206 123.28 7.13639 123.513 6.09082 123.513H4.55469V131H0.837891ZM4.55469 120.118H4.76953C5.47135 120.118 5.90104 119.921 6.05859 119.527C6.21615 119.133 6.29492 118.553 6.29492 117.787C6.29492 117.071 6.21615 116.52 6.05859 116.133C5.9082 115.739 5.54655 115.542 4.97363 115.542H4.55469V120.118ZM15.6836 131.172C14.5378 131.172 13.6247 130.957 12.9443 130.527C12.264 130.098 11.777 129.478 11.4834 128.669C11.1898 127.86 11.043 126.886 11.043 125.747V119.27C11.043 117.773 11.4727 116.641 12.332 115.875C13.1914 115.102 14.373 114.715 15.877 114.715C18.9707 114.715 20.5176 116.233 20.5176 119.27V120.44C20.5176 121.858 20.5033 122.811 20.4746 123.298H14.8887V126.413C14.8887 126.7 14.9066 126.982 14.9424 127.262C14.9782 127.534 15.057 127.759 15.1787 127.938C15.3076 128.118 15.5117 128.207 15.791 128.207C16.1921 128.207 16.4427 128.035 16.543 127.691C16.6432 127.34 16.6934 126.886 16.6934 126.327V124.78H20.5176V125.693C20.5176 126.896 20.3672 127.906 20.0664 128.723C19.7728 129.532 19.2715 130.144 18.5625 130.56C17.8607 130.968 16.901 131.172 15.6836 131.172ZM14.8672 121.386H16.6934V119.216C16.6934 118.636 16.6217 118.22 16.4785 117.97C16.3353 117.712 16.1204 117.583 15.834 117.583C15.526 117.583 15.2861 117.705 15.1143 117.948C14.9495 118.192 14.8672 118.614 14.8672 119.216V121.386ZM25.2227 131.172C24.1842 131.172 23.4824 130.953 23.1172 130.517C22.7591 130.073 22.5801 129.396 22.5801 128.486V118.442H21.4951V115.51H22.5801V112.094H26.3184V115.51H27.4033V118.442H26.3184V127.584C26.3184 127.849 26.3613 128.035 26.4473 128.143C26.5332 128.25 26.6979 128.304 26.9414 128.304C27.1133 128.304 27.2673 128.289 27.4033 128.261V130.882C27.3174 130.91 27.0488 130.964 26.5977 131.043C26.1465 131.129 25.6882 131.172 25.2227 131.172ZM33.1074 131.172C31.7396 131.172 30.6367 130.746 29.7988 129.894C28.9681 129.041 28.5527 127.849 28.5527 126.316V117.594C28.5527 115.76 28.9144 114.357 29.6377 113.383C30.3682 112.409 31.5534 111.922 33.1934 111.922C34.0885 111.922 34.8835 112.087 35.5781 112.416C36.2799 112.745 36.8314 113.24 37.2324 113.898C37.6335 114.55 37.834 115.374 37.834 116.369V119.635H34.0742V116.842C34.0742 116.276 34.0026 115.896 33.8594 115.703C33.7161 115.503 33.4941 115.402 33.1934 115.402C32.8424 115.402 32.6061 115.531 32.4844 115.789C32.3626 116.04 32.3018 116.376 32.3018 116.799V126.263C32.3018 126.785 32.377 127.154 32.5273 127.369C32.6849 127.584 32.9069 127.691 33.1934 127.691C33.5156 127.691 33.7412 127.559 33.8701 127.294C34.0062 127.029 34.0742 126.685 34.0742 126.263V122.857H37.877V126.435C37.877 128.096 37.458 129.303 36.6201 130.055C35.7822 130.799 34.6113 131.172 33.1074 131.172ZM42.0127 131.172C41.1175 131.172 40.4336 130.964 39.9609 130.549C39.4954 130.133 39.1768 129.564 39.0049 128.841C38.833 128.118 38.7471 127.298 38.7471 126.381C38.7471 125.4 38.8438 124.598 39.0371 123.975C39.2305 123.344 39.5599 122.829 40.0254 122.428C40.498 122.027 41.1462 121.687 41.9697 121.407L44.3545 120.591V118.937C44.3545 118.07 44.0716 117.637 43.5059 117.637C42.9902 117.637 42.7324 117.988 42.7324 118.689V119.656H38.9941C38.987 119.599 38.9834 119.527 38.9834 119.441C38.9834 119.348 38.9834 119.244 38.9834 119.13C38.9834 117.526 39.3594 116.391 40.1113 115.725C40.8704 115.051 42.07 114.715 43.71 114.715C44.5693 114.715 45.3392 114.869 46.0195 115.177C46.6999 115.478 47.237 115.925 47.6309 116.52C48.0319 117.114 48.2324 117.848 48.2324 118.722V131H44.4082V129.088C44.222 129.761 43.9141 130.277 43.4844 130.635C43.0547 130.993 42.5641 131.172 42.0127 131.172ZM43.5273 128.186C43.8424 128.186 44.0573 128.053 44.1719 127.788C44.2865 127.523 44.3438 127.237 44.3438 126.929V122.438C43.8138 122.653 43.402 122.925 43.1084 123.255C42.8148 123.577 42.668 124.053 42.668 124.684V126.757C42.668 127.709 42.9544 128.186 43.5273 128.186ZM49.7148 131V114.887H53.625V116.681C53.8112 116.058 54.1406 115.571 54.6133 115.22C55.0859 114.869 55.6803 114.693 56.3965 114.693V117.905C56.0814 117.905 55.7054 117.941 55.2686 118.013C54.8317 118.077 54.4486 118.17 54.1191 118.292C53.7897 118.407 53.625 118.535 53.625 118.679V131H49.7148ZM61.8535 131.172C60.7077 131.172 59.7946 130.957 59.1143 130.527C58.4339 130.098 57.9469 129.478 57.6533 128.669C57.3597 127.86 57.2129 126.886 57.2129 125.747V119.27C57.2129 117.773 57.6426 116.641 58.502 115.875C59.3613 115.102 60.543 114.715 62.0469 114.715C65.1406 114.715 66.6875 116.233 66.6875 119.27V120.44C66.6875 121.858 66.6732 122.811 66.6445 123.298H61.0586V126.413C61.0586 126.7 61.0765 126.982 61.1123 127.262C61.1481 127.534 61.2269 127.759 61.3486 127.938C61.4775 128.118 61.6816 128.207 61.9609 128.207C62.362 128.207 62.6126 128.035 62.7129 127.691C62.8132 127.34 62.8633 126.886 62.8633 126.327V124.78H66.6875V125.693C66.6875 126.896 66.5371 127.906 66.2363 128.723C65.9427 129.532 65.4414 130.144 64.7324 130.56C64.0306 130.968 63.071 131.172 61.8535 131.172ZM61.0371 121.386H62.8633V119.216C62.8633 118.636 62.7917 118.22 62.6484 117.97C62.5052 117.712 62.2904 117.583 62.0039 117.583C61.696 117.583 61.4561 117.705 61.2842 117.948C61.1195 118.192 61.0371 118.614 61.0371 119.216V121.386ZM77.752 131.172C76.6061 131.172 75.693 130.957 75.0127 130.527C74.3324 130.098 73.8454 129.478 73.5518 128.669C73.2581 127.86 73.1113 126.886 73.1113 125.747V119.27C73.1113 117.773 73.541 116.641 74.4004 115.875C75.2598 115.102 76.4414 114.715 77.9453 114.715C81.0391 114.715 82.5859 116.233 82.5859 119.27V120.44C82.5859 121.858 82.5716 122.811 82.543 123.298H76.957V126.413C76.957 126.7 76.9749 126.982 77.0107 127.262C77.0465 127.534 77.1253 127.759 77.2471 127.938C77.376 128.118 77.5801 128.207 77.8594 128.207C78.2604 128.207 78.5111 128.035 78.6113 127.691C78.7116 127.34 78.7617 126.886 78.7617 126.327V124.78H82.5859V125.693C82.5859 126.896 82.4355 127.906 82.1348 128.723C81.8411 129.532 81.3398 130.144 80.6309 130.56C79.929 130.968 78.9694 131.172 77.752 131.172ZM76.9355 121.386H78.7617V119.216C78.7617 118.636 78.6901 118.22 78.5469 117.97C78.4036 117.712 78.1888 117.583 77.9023 117.583C77.5944 117.583 77.3545 117.705 77.1826 117.948C77.0179 118.192 76.9355 118.614 76.9355 119.216V121.386ZM88.4512 131.172C87.0833 131.172 85.9805 130.746 85.1426 129.894C84.3118 129.041 83.8965 127.849 83.8965 126.316V117.594C83.8965 115.76 84.2581 114.357 84.9814 113.383C85.7119 112.409 86.8971 111.922 88.5371 111.922C89.4323 111.922 90.2272 112.087 90.9219 112.416C91.6237 112.745 92.1751 113.24 92.5762 113.898C92.9772 114.55 93.1777 115.374 93.1777 116.369V119.635H89.418V116.842C89.418 116.276 89.3464 115.896 89.2031 115.703C89.0599 115.503 88.8379 115.402 88.5371 115.402C88.1862 115.402 87.9499 115.531 87.8281 115.789C87.7064 116.04 87.6455 116.376 87.6455 116.799V126.263C87.6455 126.785 87.7207 127.154 87.8711 127.369C88.0286 127.584 88.2507 127.691 88.5371 127.691C88.8594 127.691 89.085 127.559 89.2139 127.294C89.3499 127.029 89.418 126.685 89.418 126.263V122.857H93.2207V126.435C93.2207 128.096 92.8018 129.303 91.9639 130.055C91.126 130.799 89.9551 131.172 88.4512 131.172ZM94.4238 131V112.094H98.377V116.487C98.5846 115.886 98.9033 115.442 99.333 115.155C99.7627 114.862 100.264 114.715 100.837 114.715C101.954 114.715 102.767 115.066 103.275 115.768C103.784 116.469 104.038 117.411 104.038 118.593V131H100.149V118.84C100.149 118.489 100.074 118.202 99.9238 117.98C99.7806 117.758 99.5514 117.647 99.2363 117.647C98.9714 117.647 98.7601 117.762 98.6025 117.991C98.4521 118.22 98.377 118.493 98.377 118.808V131H94.4238ZM108.485 131.172C107.59 131.172 106.906 130.964 106.434 130.549C105.968 130.133 105.649 129.564 105.478 128.841C105.306 128.118 105.22 127.298 105.22 126.381C105.22 125.4 105.316 124.598 105.51 123.975C105.703 123.344 106.033 122.829 106.498 122.428C106.971 122.027 107.619 121.687 108.442 121.407L110.827 120.591V118.937C110.827 118.07 110.544 117.637 109.979 117.637C109.463 117.637 109.205 117.988 109.205 118.689V119.656H105.467C105.46 119.599 105.456 119.527 105.456 119.441C105.456 119.348 105.456 119.244 105.456 119.13C105.456 117.526 105.832 116.391 106.584 115.725C107.343 115.051 108.543 114.715 110.183 114.715C111.042 114.715 111.812 114.869 112.492 115.177C113.173 115.478 113.71 115.925 114.104 116.52C114.505 117.114 114.705 117.848 114.705 118.722V131H110.881V129.088C110.695 129.761 110.387 130.277 109.957 130.635C109.527 130.993 109.037 131.172 108.485 131.172ZM110 128.186C110.315 128.186 110.53 128.053 110.645 127.788C110.759 127.523 110.816 127.237 110.816 126.929V122.438C110.286 122.653 109.875 122.925 109.581 123.255C109.287 123.577 109.141 124.053 109.141 124.684V126.757C109.141 127.709 109.427 128.186 110 128.186ZM116.188 131V114.887H120.033V116.938C120.176 116.323 120.441 115.8 120.828 115.37C121.222 114.933 121.766 114.715 122.461 114.715C123.578 114.715 124.387 115.059 124.889 115.746C125.397 116.434 125.651 117.375 125.651 118.571V131H121.859V118.969C121.859 118.654 121.795 118.364 121.666 118.099C121.537 117.826 121.315 117.69 121 117.69C120.706 117.69 120.488 117.794 120.345 118.002C120.209 118.202 120.123 118.457 120.087 118.765C120.051 119.065 120.033 119.366 120.033 119.667V131H116.188ZM127.166 131V114.887H131.012V116.938C131.155 116.323 131.42 115.8 131.807 115.37C132.201 114.933 132.745 114.715 133.439 114.715C134.557 114.715 135.366 115.059 135.867 115.746C136.376 116.434 136.63 117.375 136.63 118.571V131H132.838V118.969C132.838 118.654 132.773 118.364 132.645 118.099C132.516 117.826 132.294 117.69 131.979 117.69C131.685 117.69 131.466 117.794 131.323 118.002C131.187 118.202 131.101 118.457 131.065 118.765C131.03 119.065 131.012 119.366 131.012 119.667V131H127.166ZM142.656 131.172C141.51 131.172 140.597 130.957 139.917 130.527C139.237 130.098 138.75 129.478 138.456 128.669C138.162 127.86 138.016 126.886 138.016 125.747V119.27C138.016 117.773 138.445 116.641 139.305 115.875C140.164 115.102 141.346 114.715 142.85 114.715C145.943 114.715 147.49 116.233 147.49 119.27V120.44C147.49 121.858 147.476 122.811 147.447 123.298H141.861V126.413C141.861 126.7 141.879 126.982 141.915 127.262C141.951 127.534 142.03 127.759 142.151 127.938C142.28 128.118 142.484 128.207 142.764 128.207C143.165 128.207 143.415 128.035 143.516 127.691C143.616 127.34 143.666 126.886 143.666 126.327V124.78H147.49V125.693C147.49 126.896 147.34 127.906 147.039 128.723C146.745 129.532 146.244 130.144 145.535 130.56C144.833 130.968 143.874 131.172 142.656 131.172ZM141.84 121.386H143.666V119.216C143.666 118.636 143.594 118.22 143.451 117.97C143.308 117.712 143.093 117.583 142.807 117.583C142.499 117.583 142.259 117.705 142.087 117.948C141.922 118.192 141.84 118.614 141.84 119.216V121.386ZM148.887 131V112.094H152.797V131H148.887Z" fill="white"/>
<defs>
<clipPath id="clip0_34_323">
<rect width="100" height="94" fill="white"/>
</clipPath>
</defs>
</svg>
