<svg width="197" height="34" viewBox="0 0 197 34" fill="none" xmlns="http://www.w3.org/2000/svg">
<g clip-path="url(#clip0_4_28)">
<path d="M34.388 16.0615C34.2815 15.7255 34.1587 15.3956 34.0257 15.0737C33.3518 13.5704 32.1977 12.3241 30.7383 11.5236C29.2789 10.7231 27.5937 10.4121 25.9382 10.6377C24.2827 10.8634 22.7472 11.6134 21.5645 12.774C20.3818 13.9347 19.6163 15.4427 19.3842 17.0694C17.9338 16.481 16.3297 16.3652 14.8074 16.739C13.2851 17.1127 11.9249 17.9563 10.9264 19.1459C9.92787 20.3355 9.34373 21.8084 9.25973 23.3484C9.17573 24.8884 9.59629 26.4142 10.4597 27.7019C10.77 28.1159 11.1049 28.5116 11.4626 28.8869C11.817 29.2596 12.1958 29.6091 12.5966 29.933C12.9996 30.263 13.4205 30.5713 13.8575 30.8565L13.9435 30.9108C16.9545 32.8464 20.5376 33.7365 24.1227 33.4396C24.9681 33.3632 25.9834 33.1278 26.5197 32.4337C27.0785 31.7055 27.0314 30.7096 26.9618 29.8485C26.9372 29.5448 26.5238 27.8146 27.0969 27.7924C28.8531 27.724 29.5532 26.2031 29.2748 25.8591C28.9964 25.5151 28.7119 25.2374 28.5727 24.5454C28.4335 23.8533 27.9402 23.9237 27.1665 23.2336C26.3927 22.5436 26.8144 20.8838 26.8144 20.8838L25.6907 21.6423L25.486 20.8134C25.486 20.8134 22.2539 25.4406 21.4106 25.4406C20.5673 25.4406 19.7935 24.8874 19.2306 24.6118C18.6677 24.3361 17.0527 24.6118 16.4898 24.3341C15.9269 24.0565 14.8973 20.6645 14.6619 20.053C14.4573 19.4997 19.1651 19.1537 20.0044 18.878C20.8436 18.6024 21.1998 17.2887 22.6039 17.0815C23.7195 16.9165 24.7122 17.2827 24.6508 16.5986C24.5894 15.9146 24.9313 13.2127 25.5638 13.2127C25.7684 14.0416 26.6179 15.6994 29.7108 18.8076C32.8036 21.9159 34.1771 24.5514 34.1771 24.5514C35.2091 21.8238 35.2833 18.8353 34.388 16.0615Z" fill="white"/>
<path d="M22.8045 19.7089C22.8045 19.5701 21.5395 18.9485 21.1895 18.8801C21.0483 19.0169 20.9848 20.3306 21.8916 20.3306C22.0328 20.3306 21.6869 19.8478 21.7504 19.7089C21.8138 19.5701 22.8045 19.8478 22.8045 19.7089Z" fill="white"/>
<path d="M4.17978 22.4028C1.29979 21.8495 0.104399 22.3344 0.0348043 23.6461C-0.0347904 24.9578 -0.106432 28.5509 1.02346 28.8265C2.15335 29.1022 6.29219 28.062 7.69432 25.6478C8.25721 24.6822 7.06182 22.956 4.17978 22.4028Z" fill="white"/>
<path d="M5.44475 6.79099C0.667279 6.58981 -1.46559 14.0939 2.84518 15.9086C6.29012 17.3591 9.38095 17.4979 10.4392 16.7375C11.3214 16.0997 10.2345 6.99821 5.44475 6.79099Z" fill="white"/>
<path d="M18.7292 11.5651C20.0596 11.4403 20.9071 9.42447 20.9071 4.24401C20.9071 -0.936442 16.5492 0.57444 14.8626 1.19609C13.1759 1.81775 10.998 2.78544 12.4738 5.8233C13.9496 8.86116 17.2533 11.6958 18.7292 11.5651Z" fill="white"/>
<path d="M26.9516 9.15085C28.0487 9.46671 29.9032 7.56151 30.6769 5.69654C31.4507 3.83158 32.1528 2.10342 28.497 1.47171C24.8412 0.839992 24.2804 1.74934 24.6324 3.95832C24.9845 6.16731 25.7562 8.79476 26.9516 9.15085Z" fill="white"/>
</g>
<path d="M43.8379 30.5V11.5938H48.833C49.8786 11.5938 50.7057 11.8265 51.3145 12.292C51.9303 12.7575 52.3708 13.4199 52.6357 14.2793C52.9007 15.1387 53.0332 16.1628 53.0332 17.3516C53.0332 18.4974 52.9222 19.4964 52.7002 20.3486C52.4782 21.1937 52.0807 21.849 51.5078 22.3145C50.9421 22.7799 50.1364 23.0127 49.0908 23.0127H47.5547V30.5H43.8379ZM47.5547 19.6182H47.7695C48.4714 19.6182 48.901 19.4212 49.0586 19.0273C49.2161 18.6335 49.2949 18.0534 49.2949 17.2871C49.2949 16.571 49.2161 16.0195 49.0586 15.6328C48.9082 15.2389 48.5465 15.042 47.9736 15.042H47.5547V19.6182ZM58.6836 30.6719C57.5378 30.6719 56.6247 30.457 55.9443 30.0273C55.264 29.5977 54.777 28.9782 54.4834 28.1689C54.1898 27.3597 54.043 26.3857 54.043 25.2471V18.7695C54.043 17.2728 54.4727 16.1413 55.332 15.375C56.1914 14.6016 57.373 14.2148 58.877 14.2148C61.9707 14.2148 63.5176 15.7331 63.5176 18.7695V19.9404C63.5176 21.3584 63.5033 22.3109 63.4746 22.7979H57.8887V25.9131C57.8887 26.1995 57.9066 26.4824 57.9424 26.7617C57.9782 27.0339 58.057 27.2594 58.1787 27.4385C58.3076 27.6175 58.5117 27.707 58.791 27.707C59.1921 27.707 59.4427 27.5352 59.543 27.1914C59.6432 26.8405 59.6934 26.3857 59.6934 25.8271V24.2803H63.5176V25.1934C63.5176 26.3965 63.3672 27.4062 63.0664 28.2227C62.7728 29.0319 62.2715 29.6442 61.5625 30.0596C60.8607 30.4678 59.901 30.6719 58.6836 30.6719ZM57.8672 20.8857H59.6934V18.7158C59.6934 18.1357 59.6217 17.7204 59.4785 17.4697C59.3353 17.2119 59.1204 17.083 58.834 17.083C58.526 17.083 58.2861 17.2048 58.1143 17.4482C57.9495 17.6917 57.8672 18.1143 57.8672 18.7158V20.8857ZM68.2227 30.6719C67.1842 30.6719 66.4824 30.4535 66.1172 30.0166C65.7591 29.5726 65.5801 28.8958 65.5801 27.9863V17.9424H64.4951V15.0098H65.5801V11.5938H69.3184V15.0098H70.4033V17.9424H69.3184V27.084C69.3184 27.349 69.3613 27.5352 69.4473 27.6426C69.5332 27.75 69.6979 27.8037 69.9414 27.8037C70.1133 27.8037 70.2673 27.7894 70.4033 27.7607V30.3818C70.3174 30.4105 70.0488 30.4642 69.5977 30.543C69.1465 30.6289 68.6882 30.6719 68.2227 30.6719ZM76.1074 30.6719C74.7396 30.6719 73.6367 30.2458 72.7988 29.3936C71.9681 28.5413 71.5527 27.349 71.5527 25.8164V17.0938C71.5527 15.2604 71.9144 13.8568 72.6377 12.8828C73.3682 11.9089 74.5534 11.4219 76.1934 11.4219C77.0885 11.4219 77.8835 11.5866 78.5781 11.916C79.2799 12.2454 79.8314 12.7396 80.2324 13.3984C80.6335 14.0501 80.834 14.8737 80.834 15.8691V19.1348H77.0742V16.3418C77.0742 15.776 77.0026 15.3965 76.8594 15.2031C76.7161 15.0026 76.4941 14.9023 76.1934 14.9023C75.8424 14.9023 75.6061 15.0312 75.4844 15.2891C75.3626 15.5397 75.3018 15.8763 75.3018 16.2988V25.7627C75.3018 26.2855 75.377 26.6543 75.5273 26.8691C75.6849 27.084 75.9069 27.1914 76.1934 27.1914C76.5156 27.1914 76.7412 27.0589 76.8701 26.7939C77.0062 26.529 77.0742 26.1852 77.0742 25.7627V22.3574H80.877V25.9346C80.877 27.596 80.458 28.8027 79.6201 29.5547C78.7822 30.2995 77.6113 30.6719 76.1074 30.6719ZM85.0127 30.6719C84.1175 30.6719 83.4336 30.4642 82.9609 30.0488C82.4954 29.6335 82.1768 29.0641 82.0049 28.3408C81.833 27.6175 81.7471 26.7975 81.7471 25.8809C81.7471 24.8997 81.8438 24.0977 82.0371 23.4746C82.2305 22.8444 82.5599 22.3288 83.0254 21.9277C83.498 21.5267 84.1462 21.1865 84.9697 20.9072L87.3545 20.0908V18.4365C87.3545 17.57 87.0716 17.1367 86.5059 17.1367C85.9902 17.1367 85.7324 17.4876 85.7324 18.1895V19.1562H81.9941C81.987 19.099 81.9834 19.0273 81.9834 18.9414C81.9834 18.8483 81.9834 18.7445 81.9834 18.6299C81.9834 17.0257 82.3594 15.8906 83.1113 15.2246C83.8704 14.5514 85.07 14.2148 86.71 14.2148C87.5693 14.2148 88.3392 14.3688 89.0195 14.6768C89.6999 14.9775 90.237 15.4251 90.6309 16.0195C91.0319 16.6139 91.2324 17.348 91.2324 18.2217V30.5H87.4082V28.5879C87.222 29.2611 86.9141 29.7767 86.4844 30.1348C86.0547 30.4928 85.5641 30.6719 85.0127 30.6719ZM86.5273 27.6855C86.8424 27.6855 87.0573 27.5531 87.1719 27.2881C87.2865 27.0231 87.3438 26.7367 87.3438 26.4287V21.9385C86.8138 22.1533 86.402 22.4255 86.1084 22.7549C85.8148 23.0771 85.668 23.5534 85.668 24.1836V26.2568C85.668 27.2093 85.9544 27.6855 86.5273 27.6855ZM92.7148 30.5V14.3867H96.625V16.1807C96.8112 15.5576 97.1406 15.0706 97.6133 14.7197C98.0859 14.3688 98.6803 14.1934 99.3965 14.1934V17.4053C99.0814 17.4053 98.7054 17.4411 98.2686 17.5127C97.8317 17.5771 97.4486 17.6702 97.1191 17.792C96.7897 17.9066 96.625 18.0355 96.625 18.1787V30.5H92.7148ZM104.854 30.6719C103.708 30.6719 102.795 30.457 102.114 30.0273C101.434 29.5977 100.947 28.9782 100.653 28.1689C100.36 27.3597 100.213 26.3857 100.213 25.2471V18.7695C100.213 17.2728 100.643 16.1413 101.502 15.375C102.361 14.6016 103.543 14.2148 105.047 14.2148C108.141 14.2148 109.688 15.7331 109.688 18.7695V19.9404C109.688 21.3584 109.673 22.3109 109.645 22.7979H104.059V25.9131C104.059 26.1995 104.076 26.4824 104.112 26.7617C104.148 27.0339 104.227 27.2594 104.349 27.4385C104.478 27.6175 104.682 27.707 104.961 27.707C105.362 27.707 105.613 27.5352 105.713 27.1914C105.813 26.8405 105.863 26.3857 105.863 25.8271V24.2803H109.688V25.1934C109.688 26.3965 109.537 27.4062 109.236 28.2227C108.943 29.0319 108.441 29.6442 107.732 30.0596C107.031 30.4678 106.071 30.6719 104.854 30.6719ZM104.037 20.8857H105.863V18.7158C105.863 18.1357 105.792 17.7204 105.648 17.4697C105.505 17.2119 105.29 17.083 105.004 17.083C104.696 17.083 104.456 17.2048 104.284 17.4482C104.119 17.6917 104.037 18.1143 104.037 18.7158V20.8857Z" fill="white"/>
<path d="M120.752 30.6719C119.606 30.6719 118.693 30.457 118.013 30.0273C117.332 29.5977 116.845 28.9782 116.552 28.1689C116.258 27.3597 116.111 26.3857 116.111 25.2471V18.7695C116.111 17.2728 116.541 16.1413 117.4 15.375C118.26 14.6016 119.441 14.2148 120.945 14.2148C124.039 14.2148 125.586 15.7331 125.586 18.7695V19.9404C125.586 21.3584 125.572 22.3109 125.543 22.7979H119.957V25.9131C119.957 26.1995 119.975 26.4824 120.011 26.7617C120.047 27.0339 120.125 27.2594 120.247 27.4385C120.376 27.6175 120.58 27.707 120.859 27.707C121.26 27.707 121.511 27.5352 121.611 27.1914C121.712 26.8405 121.762 26.3857 121.762 25.8271V24.2803H125.586V25.1934C125.586 26.3965 125.436 27.4062 125.135 28.2227C124.841 29.0319 124.34 29.6442 123.631 30.0596C122.929 30.4678 121.969 30.6719 120.752 30.6719ZM119.936 20.8857H121.762V18.7158C121.762 18.1357 121.69 17.7204 121.547 17.4697C121.404 17.2119 121.189 17.083 120.902 17.083C120.594 17.083 120.354 17.2048 120.183 17.4482C120.018 17.6917 119.936 18.1143 119.936 18.7158V20.8857ZM131.451 30.6719C130.083 30.6719 128.98 30.2458 128.143 29.3936C127.312 28.5413 126.896 27.349 126.896 25.8164V17.0938C126.896 15.2604 127.258 13.8568 127.981 12.8828C128.712 11.9089 129.897 11.4219 131.537 11.4219C132.432 11.4219 133.227 11.5866 133.922 11.916C134.624 12.2454 135.175 12.7396 135.576 13.3984C135.977 14.0501 136.178 14.8737 136.178 15.8691V19.1348H132.418V16.3418C132.418 15.776 132.346 15.3965 132.203 15.2031C132.06 15.0026 131.838 14.9023 131.537 14.9023C131.186 14.9023 130.95 15.0312 130.828 15.2891C130.706 15.5397 130.646 15.8763 130.646 16.2988V25.7627C130.646 26.2855 130.721 26.6543 130.871 26.8691C131.029 27.084 131.251 27.1914 131.537 27.1914C131.859 27.1914 132.085 27.0589 132.214 26.7939C132.35 26.529 132.418 26.1852 132.418 25.7627V22.3574H136.221V25.9346C136.221 27.596 135.802 28.8027 134.964 29.5547C134.126 30.2995 132.955 30.6719 131.451 30.6719ZM137.424 30.5V11.5938H141.377V15.9873C141.585 15.3857 141.903 14.9417 142.333 14.6553C142.763 14.3617 143.264 14.2148 143.837 14.2148C144.954 14.2148 145.767 14.5658 146.275 15.2676C146.784 15.9694 147.038 16.9111 147.038 18.0928V30.5H143.149V18.3398C143.149 17.9889 143.074 17.7025 142.924 17.4805C142.781 17.2585 142.551 17.1475 142.236 17.1475C141.971 17.1475 141.76 17.262 141.603 17.4912C141.452 17.7204 141.377 17.9925 141.377 18.3076V30.5H137.424ZM151.485 30.6719C150.59 30.6719 149.906 30.4642 149.434 30.0488C148.968 29.6335 148.649 29.0641 148.478 28.3408C148.306 27.6175 148.22 26.7975 148.22 25.8809C148.22 24.8997 148.316 24.0977 148.51 23.4746C148.703 22.8444 149.033 22.3288 149.498 21.9277C149.971 21.5267 150.619 21.1865 151.442 20.9072L153.827 20.0908V18.4365C153.827 17.57 153.544 17.1367 152.979 17.1367C152.463 17.1367 152.205 17.4876 152.205 18.1895V19.1562H148.467C148.46 19.099 148.456 19.0273 148.456 18.9414C148.456 18.8483 148.456 18.7445 148.456 18.6299C148.456 17.0257 148.832 15.8906 149.584 15.2246C150.343 14.5514 151.543 14.2148 153.183 14.2148C154.042 14.2148 154.812 14.3688 155.492 14.6768C156.173 14.9775 156.71 15.4251 157.104 16.0195C157.505 16.6139 157.705 17.348 157.705 18.2217V30.5H153.881V28.5879C153.695 29.2611 153.387 29.7767 152.957 30.1348C152.527 30.4928 152.037 30.6719 151.485 30.6719ZM153 27.6855C153.315 27.6855 153.53 27.5531 153.645 27.2881C153.759 27.0231 153.816 26.7367 153.816 26.4287V21.9385C153.286 22.1533 152.875 22.4255 152.581 22.7549C152.287 23.0771 152.141 23.5534 152.141 24.1836V26.2568C152.141 27.2093 152.427 27.6855 153 27.6855ZM159.188 30.5V14.3867H163.033V16.4385C163.176 15.8226 163.441 15.2998 163.828 14.8701C164.222 14.4333 164.766 14.2148 165.461 14.2148C166.578 14.2148 167.387 14.5586 167.889 15.2461C168.397 15.9336 168.651 16.8753 168.651 18.0713V30.5H164.859V18.4688C164.859 18.1536 164.795 17.8636 164.666 17.5986C164.537 17.3265 164.315 17.1904 164 17.1904C163.706 17.1904 163.488 17.2943 163.345 17.502C163.209 17.7025 163.123 17.9567 163.087 18.2646C163.051 18.5654 163.033 18.8662 163.033 19.167V30.5H159.188ZM170.166 30.5V14.3867H174.012V16.4385C174.155 15.8226 174.42 15.2998 174.807 14.8701C175.201 14.4333 175.745 14.2148 176.439 14.2148C177.557 14.2148 178.366 14.5586 178.867 15.2461C179.376 15.9336 179.63 16.8753 179.63 18.0713V30.5H175.838V18.4688C175.838 18.1536 175.773 17.8636 175.645 17.5986C175.516 17.3265 175.294 17.1904 174.979 17.1904C174.685 17.1904 174.466 17.2943 174.323 17.502C174.187 17.7025 174.101 17.9567 174.065 18.2646C174.03 18.5654 174.012 18.8662 174.012 19.167V30.5H170.166ZM185.656 30.6719C184.51 30.6719 183.597 30.457 182.917 30.0273C182.237 29.5977 181.75 28.9782 181.456 28.1689C181.162 27.3597 181.016 26.3857 181.016 25.2471V18.7695C181.016 17.2728 181.445 16.1413 182.305 15.375C183.164 14.6016 184.346 14.2148 185.85 14.2148C188.943 14.2148 190.49 15.7331 190.49 18.7695V19.9404C190.49 21.3584 190.476 22.3109 190.447 22.7979H184.861V25.9131C184.861 26.1995 184.879 26.4824 184.915 26.7617C184.951 27.0339 185.03 27.2594 185.151 27.4385C185.28 27.6175 185.484 27.707 185.764 27.707C186.165 27.707 186.415 27.5352 186.516 27.1914C186.616 26.8405 186.666 26.3857 186.666 25.8271V24.2803H190.49V25.1934C190.49 26.3965 190.34 27.4062 190.039 28.2227C189.745 29.0319 189.244 29.6442 188.535 30.0596C187.833 30.4678 186.874 30.6719 185.656 30.6719ZM184.84 20.8857H186.666V18.7158C186.666 18.1357 186.594 17.7204 186.451 17.4697C186.308 17.2119 186.093 17.083 185.807 17.083C185.499 17.083 185.259 17.2048 185.087 17.4482C184.922 17.6917 184.84 18.1143 184.84 18.7158V20.8857ZM191.887 30.5V11.5938H195.797V30.5H191.887Z" fill="#22AAA1"/>
<defs>
<clipPath id="clip0_4_28">
<rect width="35" height="33" fill="white" transform="translate(0 0.5)"/>
</clipPath>
</defs>
</svg>
