<svg width="21" height="22" viewBox="0 0 21 22" fill="none" xmlns="http://www.w3.org/2000/svg">
<path d="M8.9552 4.25H12.9552C12.9552 3.14543 12.0598 2.25 10.9552 2.25C9.8506 2.25 8.9552 3.14543 8.9552 4.25ZM7.4552 4.25C7.4552 2.317 9.0222 0.75 10.9552 0.75C12.8882 0.75 14.4552 2.317 14.4552 4.25H20.2052C20.6194 4.25 20.9552 4.58579 20.9552 5C20.9552 5.41421 20.6194 5.75 20.2052 5.75H18.8861L17.7141 17.8612C17.5281 19.7834 15.9127 21.25 13.9815 21.25H7.92889C5.99774 21.25 4.38235 19.7834 4.19633 17.8612L3.02428 5.75H1.7052C1.29099 5.75 0.9552 5.41421 0.9552 5C0.9552 4.58579 1.29099 4.25 1.7052 4.25H7.4552ZM9.4552 9C9.4552 8.58579 9.1194 8.25 8.7052 8.25C8.29099 8.25 7.9552 8.58579 7.9552 9V16.5C7.9552 16.9142 8.29099 17.25 8.7052 17.25C9.1194 17.25 9.4552 16.9142 9.4552 16.5V9ZM13.2052 8.25C12.791 8.25 12.4552 8.58579 12.4552 9V16.5C12.4552 16.9142 12.791 17.25 13.2052 17.25C13.6194 17.25 13.9552 16.9142 13.9552 16.5V9C13.9552 8.58579 13.6194 8.25 13.2052 8.25Z" fill="#E61717"/>
</svg>
